HIERARCHY
ROOT Hips
{
	OFFSET 0.000000 0.000000 0.000000
	CHANNELS 6 Xposition Yposition Zposition Xrotation Yrotation Zrotation
	JOINT LeftUpLeg_virtual
	{
		OFFSET 0.000000 0.000000 0.000000
		CHANNELS 3 Xrotation Yrotation Zrotation
		JOINT LeftUpLeg
		{
			OFFSET 10.205400 -3.823500 0.155100
			CHANNELS 3 Xrotation Yrotation Zrotation
			JOINT LeftLeg
			{
				OFFSET 0.708757 -12.982077 0.567790
				CHANNELS 3 Xrotation Yrotation Zrotation
				JOINT LeftFoot
				{
					OFFSET -0.708756 -10.717838 -2.184338
					CHANNELS 3 Xrotation Yrotation Zrotation
					JOINT LeftToeBase
					{
						OFFSET 0.108149 -7.191104 7.560241
						CHANNELS 3 Xrotation Yrotation Zrotation
						JOINT LeftToe_End
						{
							OFFSET 0.070230 0.081724 4.490308
							CHANNELS 3 Xrotation Yrotation Zrotation
							End Site
							{
								OFFSET 0 0 0
							}
						}
					}
				}
			}
		}
	}
	JOINT RightUpLeg_virtual
	{
		OFFSET 0.000000 0.000000 0.000000
		CHANNELS 3 Xrotation Yrotation Zrotation
		JOINT RightUpLeg
		{
			OFFSET -10.205400 -3.823500 0.005500
			CHANNELS 3 Xrotation Yrotation Zrotation
			JOINT RightLeg
			{
				OFFSET -0.708756 -12.982134 0.610632
				CHANNELS 3 Xrotation Yrotation Zrotation
				JOINT RightFoot
				{
					OFFSET 0.708754 -10.717769 -1.945823
					CHANNELS 3 Xrotation Yrotation Zrotation
					JOINT RightToeBase
					{
						OFFSET -0.108140 -7.191069 7.372968
						CHANNELS 3 Xrotation Yrotation Zrotation
						JOINT RightToe_End
						{
							OFFSET -0.070227 0.081735 4.479403
							CHANNELS 3 Xrotation Yrotation Zrotation
							End Site
							{
								OFFSET 0 0 0
							}
						}
					}
				}
			}
		}
	}
	JOINT Spine_virtual
	{
		OFFSET 0.000000 0.000000 0.000000
		CHANNELS 3 Xrotation Yrotation Zrotation
		JOINT Spine
		{
			OFFSET 0.000000 6.876099 0.125700
			CHANNELS 3 Xrotation Yrotation Zrotation
			JOINT Spine1
			{
				OFFSET 0.000000 5.730043 0.104720
				CHANNELS 3 Xrotation Yrotation Zrotation
				JOINT Spine1_split
				{
					OFFSET 0.000000 5.730043 0.104720
					CHANNELS 3 Xrotation Yrotation Zrotation
					JOINT Spine2
					{
						OFFSET 0.000000 5.730043 0.104720
						CHANNELS 3 Xrotation Yrotation Zrotation
						JOINT Neck_virtual
						{
							OFFSET 0.000000 0.000000 0.000000
							CHANNELS 3 Xrotation Yrotation Zrotation
							JOINT Neck
							{
								OFFSET 0.000000 10.314075 0.188496
								CHANNELS 3 Xrotation Yrotation Zrotation
								JOINT Head
								{
									OFFSET 0.000000 7.643700 -2.377400
									CHANNELS 3 Xrotation Yrotation Zrotation
									JOINT HeadTop_End
									{
										OFFSET 0.000000 43.788605 -13.619600
										CHANNELS 3 Xrotation Yrotation Zrotation
										End Site
										{
											OFFSET 0 0 0
										}
									}
								}
							}
						}
						JOINT LeftShoulder_virtual
						{
							OFFSET 0.000000 0.000000 0.000000
							CHANNELS 3 Xrotation Yrotation Zrotation
							JOINT LeftShoulder
							{
								OFFSET 2.196100 4.412489 0.087492
								CHANNELS 3 Xrotation Yrotation Zrotation
								JOINT LeftShoulder_split
								{
									OFFSET 2.196100 4.412489 0.087492
									CHANNELS 3 Xrotation Yrotation Zrotation
									JOINT LeftArm
									{
										OFFSET 8.771219 -2.981674 -0.026999
										CHANNELS 3 Xrotation Yrotation Zrotation
										JOINT LeftForeArm
										{
											OFFSET 8.512804 0.000000 -0.000000
											CHANNELS 3 Xrotation Yrotation Zrotation
											JOINT LeftHand
											{
												OFFSET 18.484802 0.000000 -0.000000
												CHANNELS 3 Xrotation Yrotation Zrotation
												End Site
												{
													OFFSET 0 0 0
												}
											}
										}
									}
								}
							}
						}
						JOINT RightShoulder_virtual
						{
							OFFSET 0.000000 0.000000 0.000000
							CHANNELS 3 Xrotation Yrotation Zrotation
							JOINT RightShoulder
							{
								OFFSET -2.196100 4.412496 0.070690
								CHANNELS 3 Xrotation Yrotation Zrotation
								JOINT RightShoulder_split
								{
									OFFSET -2.196100 4.412496 0.070690
									CHANNELS 3 Xrotation Yrotation Zrotation
									JOINT RightArm
									{
										OFFSET -8.771282 -2.981682 -0.094208
										CHANNELS 3 Xrotation Yrotation Zrotation
										JOINT RightForeArm
										{
											OFFSET -8.494598 0.000000 0.000000
											CHANNELS 3 Xrotation Yrotation Zrotation
											JOINT RightHand
											{
												OFFSET -18.483803 0.000000 0.000001
												CHANNELS 3 Xrotation Yrotation Zrotation
												End Site
												{
													OFFSET 0 0 0
												}
											}
										}
									}
								}
							}
						}
					}
				}
			}
		}
	}
}
MOTION
Frames: 5
Frame Time: 0.03333333
0.002960 34.288528 0.695951 0.000000 0.000000 0.000000 -6.174926 -16.716946 -1.463154 7.620655 22.633249 3.121844 11.288785 4.612035 -0.604669 -20.109190 -0.491327 -0.420048 3.397384 0.722576 -0.736729 0.000000 0.000000 0.000000 -6.263759 -14.310076 -1.341878 6.166296 -8.700350 -13.433135 4.481270 -9.897769 1.073859 -2.058334 -3.064092 6.521619 -4.320694 -1.355060 -2.251400 0.000000 0.000000 0.000000 -6.055547 -16.552834 -2.061604 10.273160 2.417309 0.457156 -4.510097 1.369686 -0.952154 0.862857 0.512339 0.137025 0.000000 0.000000 0.000000 -5.728775 3.770010 -1.369471 5.273236 3.708777 1.335954 2.042165 -6.436809 4.929608 0.000000 0.000000 0.000000 -6.071257 3.807315 -1.608118 2.335989 -13.216104 -2.801301 -1.946777 -2.148756 -0.144866 15.364620 6.014767 -74.945104 3.881010 -10.147256 0.936680 0.000000 0.000000 0.000000 -4.958792 3.972654 -1.478131 1.116548 2.898299 4.985747 -3.399065 -1.218356 -1.275289 0.568327 7.815802 79.911595 2.270844 20.524053 1.696687 0.000000 0.000000 0.000000 
0.030295 34.251335 0.691231 0.000000 0.000000 0.000000 -6.260825 -17.072068 -1.473418 7.233134 22.589053 3.080449 11.937497 4.554723 -0.433505 -20.211911 -0.552862 -0.417025 3.459730 0.710398 -0.775759 0.000000 0.000000 0.000000 -6.277614 -14.331643 -1.354193 6.069507 -8.824119 -13.248813 4.163091 -10.079880 0.872195 -1.828388 -3.212815 6.631222 -4.521086 -1.241814 -2.256908 0.000000 0.000000 0.000000 -6.218156 -16.655150 -2.130684 10.222975 2.376747 0.477375 -4.564829 1.363885 -1.003385 0.762208 0.575581 0.100937 0.000000 0.000000 0.000000 -5.854436 3.760756 -1.416081 5.342071 3.670282 1.383646 2.041379 -6.414009 4.882315 0.000000 0.000000 0.000000 -6.093838 3.806656 -1.662763 2.309204 -13.101127 -2.944759 -1.986989 -2.038162 -0.144044 15.340178 6.393611 -74.687511 3.696794 -10.023531 0.746890 0.000000 0.000000 0.000000 -4.950535 3.978873 -1.541814 1.100399 2.999276 5.104565 -3.242768 -1.164796 -1.260322 0.610247 7.887339 80.040617 2.359393 21.022498 1.709387 0.000000 0.000000 0.000000 
0.061306 34.188248 0.673197 0.000000 0.000000 0.000000 -6.188454 -17.198594 -1.528260 6.299209 22.352820 3.370185 13.235724 4.243794 -0.194989 -20.326090 -0.880312 -0.454532 3.395324 0.684469 -0.813163 0.000000 0.000000 0.000000 -6.283471 -14.125977 -1.447671 5.842137 -9.266838 -13.019531 4.275456 -10.138361 0.690005 -2.184485 -3.259382 6.927171 -4.499224 -1.013444 -2.042218 0.000000 0.000000 0.000000 -6.210776 -16.730612 -2.224697 10.115149 2.303775 0.571491 -4.623274 1.349946 -1.079607 0.751534 0.559415 0.112754 0.000000 0.000000 0.000000 -5.975627 3.742706 -1.489177 5.385797 3.629180 1.314460 1.956625 -6.502157 5.018171 0.000000 0.000000 0.000000 -6.104182 3.788017 -1.720187 2.245305 -12.912315 -3.175638 -2.041224 -2.076826 -0.175421 15.321656 6.778471 -74.079194 3.717015 -9.718914 0.625905 0.000000 0.000000 0.000000 -4.945046 3.964585 -1.621892 1.065258 3.030679 5.328168 -3.281175 -1.176233 -1.263897 0.629915 8.470832 79.898549 2.641530 21.563174 1.776506 0.000000 0.000000 0.000000 
0.117255 34.101971 0.594109 0.000000 0.000000 0.000000 -6.011254 -17.080263 -1.581673 4.951012 22.047938 3.870056 14.936886 3.824349 0.033776 -20.431973 -1.427552 -0.374877 3.251832 0.640812 -0.800456 0.000000 0.000000 0.000000 -6.295931 -13.733643 -1.566580 5.464202 -9.933805 -12.853290 4.674161 -10.031169 0.525018 -3.048197 -3.235978 7.328582 -4.076163 -0.704088 -1.634630 0.000000 0.000000 0.000000 -6.039495 -16.795083 -2.316344 9.990375 2.210489 0.690861 -4.669528 1.339277 -1.163502 0.844540 0.551203 0.167113 0.000000 0.000000 0.000000 -6.088005 3.721095 -1.566620 5.398785 3.582592 1.166125 1.824676 -6.685192 5.311734 0.000000 0.000000 0.000000 -6.093406 3.760940 -1.765849 2.152879 -12.656441 -3.471234 -1.991496 -2.286476 -0.197779 15.192588 6.999513 -73.267979 3.909781 -9.309661 0.534814 0.000000 0.000000 0.000000 -4.936373 3.937240 -1.701485 1.015761 2.987157 5.641425 -3.461070 -1.200346 -1.281039 0.663052 9.372339 79.457127 3.094813 22.069844 1.909892 0.000000 0.000000 0.000000 
0.207611 33.996975 0.434853 0.000000 0.000000 0.000000 -5.774776 -16.838103 -1.590464 3.449761 21.825400 4.352501 16.734194 3.447944 0.187970 -20.605146 -2.072638 0.016445 3.140785 0.575569 -0.749619 0.000000 0.000000 0.000000 -6.270809 -13.317039 -1.626874 5.002062 -10.686791 -12.797538 5.053272 -9.757422 0.349788 -4.211697 -3.155883 7.758312 -3.370485 -0.402954 -1.094977 0.000000 0.000000 0.000000 -5.770865 -16.905852 -2.365465 9.918889 2.113056 0.744346 -4.705573 1.343538 -1.235706 0.974554 0.636345 0.251587 0.000000 0.000000 0.000000 -6.181912 3.712458 -1.628348 5.341010 3.540374 1.028561 1.663663 -6.870037 5.705585 0.000000 0.000000 0.000000 -6.083729 3.746844 -1.785802 2.052497 -12.354525 -3.775614 -1.863451 -2.603886 -0.085841 14.905464 7.016787 -72.401911 4.185176 -8.949465 0.417419 0.000000 0.000000 0.000000 -4.928920 3.910086 -1.759407 0.950919 2.847385 6.040877 -3.715331 -1.186363 -1.296598 0.734853 10.333885 78.745067 3.676722 22.437356 2.129935 0.000000 0.000000 0.000000 
